<?xml version="1.0" encoding="UTF-8"?>
<svg id="logosandtypes_com" data-name="logosandtypes com" xmlns="http://www.w3.org/2000/svg" viewBox="0 0 150 150">
  <defs>
    <style>
      .cls-1 {
        fill: #60ba45;
      }

      .cls-2 {
        fill: #00a74f;
      }

      .cls-3 {
        fill: none;
      }
    </style>
  </defs>
  <g id="Layer_3" data-name="Layer 3">
    <g id="Layer_2" data-name="Layer 2">
      <path id="Layer_3-2" data-name="Layer 3" class="cls-3" d="M0,0H150V150H0V0Z"/>
    </g>
  </g>
  <g id="accordia_golf" data-name="accordia golf">
    <path class="cls-2" d="M123.1,103c-20.2-15.2-43.1-20-68.3-16.6,6.7-10.9,13.1-21.4,19.7-32.3,5.7,10.2,11.4,20.1,17,30.1,11.9,1.5,23.5,4.6,34.5,9.5-2.4-4.2-51.6-83.7-51.6-83.7,0,0-54.2,87.9-55.7,90.4,.7-.4,2.3-1.2,3.1-1.6,14.6-7.4,29.9-10.2,46.2-7.2,16.7,3.1,29,12.3,37.3,27,2,3.7,3.7,7.6,5,11.6h35.3c-5.1-10.8-12.9-20.1-22.5-27.2h0Z"/>
    <path class="cls-1" d="M90.2,108.6c-8.5-6.4-18.3-8.9-28.7-9.3-9.5-.5-19,1.1-27.8,4.7-11.6,4.6-21,11.9-27.9,22.3-.8,1.1-1.7,2.2-2,3.8H38.8c14.8-22,41.1-23.7,59.2-12.2-1.7-4.2-4.9-7.1-7.8-9.3Z"/>
  </g>
</svg>